<?xml version="1.0" encoding="UTF-8"?>
<svg width="456" height="456" fill="none" version="1.1" viewBox="0 0 456 456" xmlns="http://www.w3.org/2000/svg" xmlns:cc="http://creativecommons.org/ns#" xmlns:dc="http://purl.org/dc/elements/1.1/" xmlns:rdf="http://www.w3.org/1999/02/22-rdf-syntax-ns#">
 <title>Placeholder Logo</title>
 <metadata>
  <rdf:RDF>
   <cc:Work rdf:about="">
    <dc:title>Placeholder Logo</dc:title>
   </cc:Work>
  </rdf:RDF>
 </metadata>
 <g>
  <g>
   <path d="m0 0v456h456v-456zm109.34 168.2h22.328l53.361 85.043c2.257 3.527 3.7085 5.9514 4.3535 7.2734h0.32226c-0.537-3.14-0.80664-8.4572-0.80664-15.951v-76.365h18.459v118.52h-20.957l-55.215-87.109c-1.397-2.204-2.5538-4.4904-3.4668-6.8594h-0.48438c0.43 2.535 0.64649 7.9603 0.64649 16.279v77.689h-18.541zm123.41 0h62.309v16.695h-43.123v33.555h39.738v16.611h-39.738v35.041h45.703v16.613h-64.889zm71.582 0h85.523v16.695h-33.209v101.82h-19.186v-101.82h-33.129zm-225.87 98.02c3.278 0 6.0457 1.1007 8.3027 3.3047 2.3107 2.204 3.4668 4.8496 3.4668 7.9356 0 3.03-1.1561 5.6456-3.4668 7.8496-2.257 2.149-5.0247 3.2246-8.3027 3.2246-3.2242 0-5.9637-1.0756-8.2207-3.2246-2.257-2.204-3.3867-4.8196-3.3867-7.8496 0-3.086 1.1297-5.7316 3.3867-7.9356s4.9965-3.3047 8.2207-3.3047z" fill="#1c252a" stroke-linecap="round" stroke-width="156.75"/>
  </g>
 </g>
</svg>
