<?xml version="1.0" encoding="UTF-8"?>
<svg width="456" height="456" fill="none" version="1.1" viewBox="0 0 456 456" xmlns="http://www.w3.org/2000/svg" xmlns:cc="http://creativecommons.org/ns#" xmlns:dc="http://purl.org/dc/elements/1.1/" xmlns:rdf="http://www.w3.org/1999/02/22-rdf-syntax-ns#">
 <title>Placeholder Logo</title>
 <metadata>
  <rdf:RDF>
   <cc:Work rdf:about="">
    <dc:title>Placeholder Logo</dc:title>
   </cc:Work>
  </rdf:RDF>
 </metadata>
 <g>
  <g fill="#dad2a5">
   <path d="m0 0v456h456v-456zm259.1 142.9c3.8045 0 7.006 0.8176 9.6016 2.4531 2.5955 1.6 4.5496 3.875 5.8652 6.8262 1.3511 2.9155 2.0273 6.3465 2.0273 10.293v2e-3c0 3.9467-0.67621 7.3944-2.0273 10.346-1.3155 2.9155-3.2696 5.1925-5.8652 6.8281s-5.8144 2.4532-9.6543 2.4531c-3.9467 0-7.2361-0.8176-9.8672-2.4531-2.5955-1.6355-4.5325-3.9297-5.8125-6.8809-1.28-2.9511-1.9199-6.4008-1.9199-10.348 0-3.9111 0.63992-7.3247 1.9199-10.24s3.217-5.1906 5.8125-6.8262c2.6311-1.6355 5.9377-2.4531 9.9199-2.4531zm-102.24 0.0488c4.0178 0 7.519 0.7469 10.506 2.2402l-1.9199 4.0547c-1.1733-0.53333-2.4875-1.0147-3.9453-1.4414-1.4222-0.42667-2.9867-0.63867-4.6934-0.63867-4.0889 0-7.3076 1.3696-9.6543 4.1074-2.3467 2.7378-3.5195 6.4878-3.5195 11.252 0 4.7289 1.085 8.4808 3.2539 11.254 2.2045 2.7378 5.4919 4.1055 9.8652 4.1055 1.6711 0 3.2547-0.14134 4.748-0.42579 1.4933-0.28442 2.9508-0.63971 4.373-1.0664v4.1602c-1.4222 0.53332-2.8988 0.923-4.4277 1.1719-1.4933 0.24889-3.2889 0.37305-5.3867 0.37305-3.8755 0-7.1114-0.79844-9.707-2.3984s-4.5497-3.877-5.8652-6.8281c-1.28-2.9511-1.9199-6.4162-1.9199-10.398 0-3.84 0.69341-7.2194 2.0801-10.135 1.4222-2.9511 3.5024-5.2434 6.2402-6.8789 2.7378-1.6711 6.0616-2.5078 9.9727-2.5078zm-39.68 0.375h4.3203l14.826 38.24h-4.9609l-4.5859-11.787h-15.094l-4.5332 11.787h-4.8535zm-69.92 0.16016h10.078c4.9778 0 8.6053 0.97806 10.881 2.9336 2.2755 1.9555 3.4141 4.71 3.4141 8.2656 0 2.0978-0.48141 4.071-1.4414 5.9199-0.92447 1.8133-2.5061 3.2899-4.7461 4.4277-2.2045 1.1378-5.2093 1.707-9.0137 1.707h-4.373v14.826h-4.7988zm32.266 0h4.8008v33.812h16.641v4.2676h-21.441zm94.67 0h21.281v4.2129h-16.48v11.893h15.52v4.1602h-15.52v13.6h16.48v4.2148h-21.281zm29.65 0h4.8008v16.107h19.52v-16.107h4.8008v38.08h-4.8008v-17.76h-19.52v17.76h-4.8008zm81.17 0h4.8008v33.812h16.639v4.2676h-21.439zm66.881 0h21.279v4.2129h-16.48v11.893h15.521v4.1602h-15.521v13.6h16.48v4.2148h-21.279zm29.652 0h10.508c4.7289 0 8.2133 0.90542 10.453 2.7188 2.2755 1.7778 3.4121 4.4808 3.4121 8.1074 0 2.0267-0.37248 3.7153-1.1191 5.0664-0.74668 1.3511-1.7075 2.4362-2.8809 3.2539-1.1378 0.7822-2.347 1.4049-3.627 1.8672l10.453 17.066h-5.5996l-9.2266-15.732h-7.5742v15.732h-4.7988zm-68.578 2e-3h11.732c3.84 0 7.1638 0.71257 9.9726 2.1348 2.8089 1.4222 4.9789 3.5196 6.5078 6.293 1.5289 2.7378 2.293 6.1514 2.293 10.24 0 6.4355-1.7612 11.289-5.2812 14.561-3.4845 3.2355-8.3557 4.8516-14.613 4.8516h-10.611zm-53.869 3.627c-4.3022 0-7.4826 1.3696-9.5449 4.1074-2.0267 2.7022-3.041 6.4541-3.041 11.254 0 4.8 1.0143 8.586 3.041 11.359 2.0267 2.7378 5.19 4.1074 9.4922 4.1074 4.3378 0 7.5031-1.3696 9.4941-4.1074 1.9911-2.7733 2.9863-6.5594 2.9863-11.359s-0.9952-8.5519-2.9863-11.254c-1.9911-2.7378-5.1392-4.1074-9.4414-4.1074zm-207.04 0.47656v15.041h3.8398c3.6267 0 6.3296-0.58643 8.1074-1.7598 1.7778-1.1733 2.666-3.1658 2.666-5.9746 0-2.4533-0.78124-4.2833-2.3457-5.4922-1.5645-1.2089-4.0363-1.8144-7.4141-1.8144zm265.71 4e-3v29.867h5.1738c10.311 0 15.467-5.0485 15.467-15.146h-2e-3c0-5.0845-1.2607-8.8016-3.7852-11.148-2.4889-2.3822-6.0268-3.5723-10.613-3.5723zm68.58 0.0508v14.133h5.707c3.0933 0 5.3512-0.60559 6.7734-1.8145 1.4222-1.2445 2.1328-3.0572 2.1328-5.4394 0-2.4889-0.7469-4.2482-2.2402-5.2793-1.4933-1.0667-3.8047-1.5996-6.9336-1.5996zm-267.09 0.64063c-0.2489 1.1022-0.53352 2.1853-0.85352 3.252-0.32 1.0311-0.58745 1.8487-0.80078 2.4531l-4.3184 11.521h12.053l-4.2676-11.521c-0.10667-0.28445-0.28432-0.80019-0.53321-1.5469-0.24889-0.74666-0.4972-1.5108-0.74609-2.293-0.21333-0.8178-0.39098-1.4386-0.5332-1.8652zm39.543 66.826c9.5113 0 17.511 2.044 24 6.1328 6.4889 4 11.377 9.6884 14.666 17.066 3.3777 7.2887 5.0664 15.866 5.0664 25.732 0 9.8667-1.6887 18.489-5.0664 25.867-3.2889 7.2887-8.1769 12.979-14.666 17.068-6.4889 4.0889-14.533 6.1328-24.133 6.1328-9.8667 0-18.09-2.0439-24.668-6.1328-6.4889-4.0889-11.333-9.8234-14.533-17.201-3.2-7.378-4.7988-16.001-4.7988-25.867 0-9.778 1.5988-18.311 4.7988-25.6s8.0445-12.977 14.533-17.066c6.5777-4.0889 14.845-6.1328 24.801-6.1328zm201.2 0c9.5113 0 17.511 2.044 24 6.1328 6.4889 4 11.379 9.6884 14.668 17.066 3.3777 7.2887 5.0664 15.866 5.0664 25.732 0 9.8667-1.6887 18.489-5.0664 25.867-3.2889 7.2887-8.1788 12.979-14.668 17.068-6.4889 4.0889-14.533 6.1328-24.133 6.1328-9.8667 0-18.088-2.0439-24.666-6.1328-6.4889-4.0889-11.333-9.8234-14.533-17.201s-4.8006-16-4.8008-25.867c0-9.778 1.6008-18.311 4.8008-25.6s8.0445-12.977 14.533-17.066c6.5777-4.0889 14.843-6.1328 24.799-6.1328zm-91.867 0.12696c5.3333 0 10.357 0.48899 15.068 1.4668 4.8 0.9778 9.2434 2.3551 13.332 4.1328l-4.5332 10.4c-3.3777-1.5111-7.1999-2.8006-11.467-3.8672-4.1777-1.0667-8.5328-1.5996-13.066-1.5996-11.378 0-20.268 3.4229-26.668 10.268-6.3111 6.8447-9.4668 16.222-9.4668 28.133 1e-5 7.5553 1.1996 14.266 3.5996 20.133 2.4889 5.7777 6.3571 10.311 11.602 13.6 5.2444 3.2 12.132 4.8008 20.666 4.8008 4.1777 0 7.7344-0.22352 10.668-0.66797 2.9333-0.44444 5.6-0.97738 8-1.5996v-28.266h-20.934v-10.668h32.934v46.668c-5.1555 1.6889-10.355 2.9324-15.6 3.7324-5.2444 0.8-11.2 1.1992-17.867 1.1992-9.8667 0-18.178-1.9542-24.934-5.8652-6.7553-4-11.911-9.6449-15.467-16.934-3.4667-7.378-5.1992-16.089-5.1992-26.133 0-9.9553 1.9542-18.578 5.8652-25.867 3.9111-7.2887 9.5119-12.934 16.801-16.934 7.378-4.0889 16.266-6.1328 26.666-6.1328zm-215.86 1.3359h12v84.533h41.6v10.666h-53.6zm106.53 9.0703c-10.756 1e-5 -18.711 3.421-23.867 10.266-5.0667 6.7553-7.6016 16.133-7.6016 28.133h2e-3c0 12 2.5329 21.467 7.5996 28.4 5.0667 6.8447 12.977 10.268 23.732 10.268 10.845 0 18.757-3.4229 23.734-10.268 4.9777-6.9333 7.4668-16.4 7.4668-28.4s-2.4891-21.377-7.4668-28.133c-4.9777-6.8447-12.844-10.266-23.6-10.266zm201.2 0c-10.756 1e-5 -18.711 3.421-23.867 10.266-5.0667 6.7553-7.5996 16.133-7.5996 28.133s2.5349 21.467 7.6016 28.4c5.0667 6.8447 12.977 10.268 23.732 10.268 10.845 0 18.755-3.4229 23.732-10.268 4.9777-6.9333 7.4668-16.4 7.4668-28.4s-2.4891-21.377-7.4668-28.133c-4.9777-6.8447-12.844-10.266-23.6-10.266z" fill="#1c252a" stroke-linecap="round" stroke-width="70.02"/>
  </g>
 </g>
</svg>
