<?xml version="1.0" encoding="UTF-8"?>
<svg width="456" height="456" fill="none" version="1.1" viewBox="0 0 456 456" xmlns="http://www.w3.org/2000/svg" xmlns:cc="http://creativecommons.org/ns#" xmlns:dc="http://purl.org/dc/elements/1.1/" xmlns:rdf="http://www.w3.org/1999/02/22-rdf-syntax-ns#">
 <title>Placeholder Logo</title>
 <metadata>
  <rdf:RDF>
   <cc:Work rdf:about="">
    <dc:title>Placeholder Logo</dc:title>
   </cc:Work>
  </rdf:RDF>
 </metadata>
 <g>
  <g transform="matrix(.62253 0 0 .62253 160.41 74.349)" clip-rule="evenodd" fill="#1c252a" stroke-linejoin="round" stroke-miterlimit="2" stroke-width="11.101">
   <path d="m121.98 278.65c1.1767-20.992 11.456-39.485 26.964-52.595 15.208-12.877 35.678-20.747 58.013-20.747 22.313 0 42.782 7.8704 58.001 20.747 15.497 13.11 25.776 31.604 26.964 52.573 1.1767 21.569-7.493 41.606-22.701 56.458-15.508 15.108-37.565 24.588-62.264 24.588-24.699 0-46.801-9.48-62.297-24.588-15.219-14.853-23.867-34.89-22.679-56.436z"/>
   <path d="m-13.341 321.07c0.14431 8.2146 2.7641 24.177 6.6938 36.644 8.259 26.386 22.268 50.797 41.761 72.31 20.004 22.113 44.636 39.874 73.087 52.484 29.905 13.243 62.309 19.992 95.966 19.937 33.602-0.0444 66.005-6.9269 95.911-20.27 28.451-12.733 53.062-30.571 73.032-52.695 19.482-21.602 33.469-46.057 41.75-72.444 4.1628-13.332 6.7937-26.864 7.8482-40.44 1.0324-13.376 0.59944-26.775-1.2988-40.163-3.7076-26.087-12.733-50.564-26.631-72.876-12.71-20.503-29.095-38.453-48.577-53.561l0.0444-0.0333-196.61-150.96c-0.17762-0.13321-0.32192-0.27752-0.51064-0.39963-12.899-9.9019-34.59-9.8686-48.777 0.055504-14.342 10.035-15.985 26.631-3.2192 37.099l-0.0555 0.0555 82.001 66.682-249.93 0.26642h-0.33302c-20.659 0.0222-40.518 13.576-44.447 30.705-4.0407 17.45 9.9907 31.926 31.471 32.003l-0.0333 0.0777 126.68-0.24421-226.06 173.52c-0.28862 0.21092-0.59944 0.43293-0.86586 0.64385-21.325 16.329-28.218 43.482-14.786 60.666 13.632 17.473 42.616 17.506 64.162 0.0999l123.37-100.97s-1.7983 13.632-1.654 21.813zm317.03 45.646c-25.421 25.898-61.01 40.584-99.518 40.662-38.564 0.0666-74.153-14.486-99.574-40.34-12.422-12.599-21.547-27.097-27.175-42.538-5.5171-15.175-7.6595-31.282-6.2386-47.533 1.3432-15.885 6.0721-31.038 13.621-44.747 7.4153-13.476 17.628-25.654 30.238-35.955 24.71-20.137 56.17-31.038 89.072-31.082 32.936-0.0444 64.373 10.757 89.106 30.827 12.588 10.257 22.79 22.39 30.205 35.844 7.5818 13.698 12.277 28.795 13.676 44.725 1.3987 16.229-0.74375 32.314-6.2608 47.5-5.6392 15.486-14.731 29.983-27.152 42.638z"/>
  </g>
 </g>
</svg>
