<?xml version="1.0" encoding="UTF-8"?>
<svg width="456" height="456" fill="none" version="1.1" viewBox="0 0 456 456" xmlns="http://www.w3.org/2000/svg" xmlns:cc="http://creativecommons.org/ns#" xmlns:dc="http://purl.org/dc/elements/1.1/" xmlns:rdf="http://www.w3.org/1999/02/22-rdf-syntax-ns#">
 <title>Placeholder Logo</title>
 <metadata>
  <rdf:RDF>
   <cc:Work rdf:about="">
    <dc:title>Placeholder Logo</dc:title>
   </cc:Work>
  </rdf:RDF>
 </metadata>
 <g transform="translate(46.596 -20.72)">
  <path d="m203.78 148.86c-10.815-12.762-20.133-25.814-22.025-28.492a0.426 0.426 0 0 0-0.70032 6e-5c-1.8917 2.6784-11.208 15.73-22.022 28.492-92.691 118.08 14.63 197.76 14.63 197.76l0.87 0.60461c0.8136 12.326 2.8351 30.041 2.8351 30.041h8.0768s2.0128-17.638 2.83-29.961l0.87549-0.68451s107.32-79.67 14.63-197.76zm-22.373 196.02h-1e-3s-4.811-4.1038-6.1096-6.16l-0.0117-0.22131 5.8195-128.56a0.30281 0.30281 0 0 1 0.605 0l5.8195 128.56-0.0113 0.22065c-1.2977 2.0559-6.1102 6.1608-6.1102 6.1608z" fill="#1c252a"/>
 </g>
</svg>
