<?xml version="1.0" encoding="UTF-8"?>
<svg width="456" height="456" fill="none" version="1.1" viewBox="0 0 456 456" xmlns="http://www.w3.org/2000/svg" xmlns:cc="http://creativecommons.org/ns#" xmlns:dc="http://purl.org/dc/elements/1.1/" xmlns:rdf="http://www.w3.org/1999/02/22-rdf-syntax-ns#" xmlns:xlink="http://www.w3.org/1999/xlink">
 <title>Placeholder Logo</title>
 <metadata>
  <rdf:RDF>
   <cc:Work rdf:about="">
    <dc:title>Placeholder Logo</dc:title>
   </cc:Work>
  </rdf:RDF>
 </metadata>
 <path d="m283.58 395.26c-7.077-1.9152-12.19-5.7922-16.172-12.264-0.93255-1.5154-1.9745-3.6419-2.3153-4.7256l-0.61979-1.9705-1.538 0.2108c-2.3866 0.32712-10.689-0.34795-19.132-1.5557-12.428-1.7776-18.392-1.5346-34.369 1.4005-4.126 0.75799-8.7103 1.4875-10.187 1.6212l-2.6853 0.24305-1.3148 2.2482c-1.8041 3.0848-5.5606 6.5662-9.0359 8.3741-11.009 5.7271-26.587 4.1948-43.45-4.2741-6.7545-3.3923-12.068-4.6694-27.408-6.5871-5.3482-0.6686-11.253-1.6063-13.122-2.0839-12.24-3.1275-15.644-10.718-11.17-24.911 1.7157-5.4427 1.8236-8.294 0.63318-16.734-1.0236-7.257-1.0802-9.1006-0.38104-12.4 0.67576-3.1891 2.0235-5.5932 4.5418-8.1019 2.4288-2.4195 5.4711-4.1222 10.472-5.8608 7.4732-2.5981 8.8674-3.6091 13.521-9.8045 1.7449-2.3229 3.9564-5.1381 4.9145-6.256l1.7421-2.0326 0.0554-8.7842c0.0593-9.4036 0.25185-11.015 2.2785-19.077 5.0551-20.109 18.254-43.762 37.944-67.998 8.9894-11.065 14.339-23.418 16.262-37.552 0.92232-6.7798 0.99014-9.8593 0.41494-18.842-1.214-18.959-1.0823-28.358 0.53062-37.855 1.9194-11.301 6.1511-20.22 12.642-26.645 8.7547-8.6655 21.173-12.869 38.1-12.897 7.4831-0.01232 11.244 0.44806 16.81 2.0575 16.127 4.6637 26.609 17.886 30.818 38.876 2.0148 10.047 2.3516 15.247 2.5879 39.952 0.10436 10.911 0.19622 12.573 0.8618 15.597 2.5678 11.664 8.4937 21.772 23.075 39.359 13.79 16.632 23.908 33.457 29.302 48.719 5.3722 15.203 6.4274 31.39 2.9162 44.734-0.48828 1.8556-0.95474 3.6878-1.0366 4.0716-0.11794 0.55305 0.30043 0.95127 2.0162 1.9191 5.2926 2.9855 7.4134 6.6009 10.048 17.129 2.0073 8.0217 2.7759 10.123 4.4907 12.279 5.3997 6.789 6.4954 8.2632 7.5443 10.151 3.764 6.7747 3.5234 12.367-0.72998 16.961-2.61 2.8191-5.6341 4.7259-14.448 9.1101-14.82 7.3716-17.079 8.9461-26.499 18.472-5.6211 5.6842-7.4543 7.3051-10.544 9.3231-4.2004 2.7434-8.9908 4.9702-13.064 6.0726-3.977 1.0763-11.906 1.2471-15.297 0.32945zm11.616-4.055c9.1505-1.7358 17.141-6.8212 25.856-16.456 6.3989-7.0743 10.363-9.794 25.066-17.199 5.3299-2.6842 10.633-5.5912 11.784-6.4598 5.0042-3.7752 5.7797-7.1584 2.9356-12.806-1.449-2.8774-2.5355-4.4351-5.9713-8.5615-3.6858-4.4265-4.6956-6.6944-6.8427-15.368-0.96283-3.8896-2.225-8.0858-2.8049-9.325-2.5988-5.5535-8.2546-8.2833-15.739-7.5967-2.073 0.19015-2.38 0.32991-3.8382 1.7472-3.5403 3.4409-8.5694 6.4445-13.623 8.1362-4.2742 1.4308-8.1264 1.538-11.34 0.31555-3.0862-1.174-6.3892-4.5788-8.172-8.424-1.4463-3.1193-2.4702-6.7306-2.4702-8.7126 0-1.5946-0.2322-1.7805-1.3485-1.0794-5.5211 3.4674-8.4881 9.8712-9.9811 21.543-0.29458 2.3029-0.76564 7.8169-1.0468 12.253-0.59334 9.3624-1.0093 11.574-4.41 23.447-4.1056 14.334-5.0819 19.511-4.7647 25.264 0.21564 3.9108 1.0039 6.2854 3.2276 9.7229 5.1546 7.9682 13.647 11.425 23.484 9.559zm-118.91-3.671c9.7408-1.5364 15.843-6.8819 17.592-15.411 0.93683-4.5669 0.63424-7.4415-1.2492-11.868-2.1983-5.166-5.1646-9.5398-14.265-21.033-6.6524-8.4021-8.4431-10.986-11.488-16.574-9.2455-16.97-12.481-22.713-13.565-24.076-4.9371-6.2088-10.759-9.4318-16.233-8.9873-4.4369 0.36027-7.052 2.381-12.673 9.7926-2.0656 2.7236-4.3783 5.6301-5.1394 6.4588-1.9662 2.1411-5.3399 4.0219-10.441 5.8209-5.6235 1.9832-7.5884 2.9881-9.6941 4.9578-3.8949 3.6432-4.5067 7.4677-2.9191 18.245 1.2058 8.1852 1.0902 11.118-0.64757 16.436-3.3487 10.247-2.398 16.015 3.0853 18.72 3.5132 1.7328 5.7147 2.1846 17.436 3.5781 15.532 1.8465 20.73 3.1212 28.448 6.9754 11.679 5.8327 23.078 8.3331 31.752 6.965zm58.527-26.35c9.396-1.3952 18.788-4.833 27.653-10.122 6.3672-3.799 5.9687-3.3071 7.6636-9.4593 2.1747-7.8938 2.7268-11.126 3.1487-18.431 0.88731-15.366 2.5602-23.899 5.8487-29.833 1.7607-3.1772 5.6094-6.9372 8.5143-8.318 2.2791-1.0834 2.3193-1.1265 2.5621-2.7455 0.69543-4.6374 3.2543-8.1447 6.7643-9.2712 5.224-1.6767 12.687 1e-3 22.45 5.0477 4.967 2.5673 8.3373 5.294 9.8385 7.9596 0.95606 1.6976 1.0745 2.2111 1.0266 4.4488l-0.0543 2.5297h1.1969c0.96374 0 1.2632-0.17436 1.5372-0.89503 0.57417-1.5102 0.39303-4.8696-0.37297-6.9169-1.5523-4.1489-7.5797-9.1453-15.757-13.061l-4.137-1.9813 0.19039-1.2212c0.81471-5.2257 0.94961-7.3154 0.7659-11.863-0.12158-3.01-0.50068-6.4728-0.93586-8.5487-2.159-10.298-7.7434-21.971-14.93-31.206-2.8383-3.6475-8.3761-9.4435-9.0228-9.4435-0.26454 0-0.47211 0.36489-0.47211 0.82992 0 0.5685 1.0949 2.0062 3.476 4.5642 7.592 8.1561 13.531 19.538 15.939 30.545 0.50868 2.3259 0.64866 4.4341 0.64866 9.7699 0 6.3809-0.0605 7.0209-0.97358 10.29-0.53547 1.9172-1.085 3.5847-1.2212 3.7054-0.13622 0.12079-1.8166-0.0392-3.7341-0.35551-2.9602-0.48832-3.5031-0.67894-3.597-1.263-0.0608-0.37832-0.64246-2.902-1.2925-5.6083-2.6833-11.171-6.1121-19.982-13.633-35.032-7.6936-15.396-12.185-25.808-17.726-41.096-2.3703-6.5398-6.2435-18.776-6.6804-21.105-0.13456-0.71726-0.2711-1.3041-0.30344-1.3041-0.0323 0-1.2317 1.1488-2.6653 2.5529-3.0242 2.962-6.3824 5.0305-10.885 6.7044-1.7587 0.65387-5.2602 2.4456-7.781 3.9817-8.1205 4.9482-11.972 6.3008-17.943 6.3008-6.2947 0-10.406-1.7022-16.032-6.6384-3.2661-2.8653-9.7034-7.5529-9.9701-7.2601-0.0581 0.0638-0.36668 2.1852-0.68569 4.7142-1.1065 8.7722-4.3285 20.249-9.0922 32.388-2.7537 7.0167-4.4582 10.914-11.524 26.349-9.0069 19.675-12.207 30.401-13.43 45.008-0.21672 2.5898-0.43092 4.8525-0.47601 5.0283-0.13809 0.5385-3.0441-4.321-4.0662-6.7996-2.1448-5.2013-2.8072-8.7997-2.8023-15.224 4e-3 -5.1721 0.53599-9.0408 1.9818-14.41 1.5202-5.6451 3.1655-9.5925 8.2252-19.734 3.2592-6.5324 4.8429-10.073 4.7602-10.642-0.11127-0.76497-0.25181-0.65521-1.3653 1.0663-1.9599 3.0303-7.0513 12.05-8.9618 15.876-10.292 20.613-12.216 37.684-5.6355 50.009 3.0959 5.7987 7.4011 10.072 15.442 15.328 11.786 7.7047 18.017 13.112 23.585 20.468 5.8727 7.7589 6.9407 15.572 2.6443 19.344-1.4875 1.3061-4.6435 2.4936-6.627 2.4936-0.84506 0-1.6096 0.11831-1.699 0.26291-0.0894 0.1446 1.0989 1.911 2.6407 3.9254 1.5417 2.0144 3.6561 4.8741 4.6987 6.3548 1.5218 2.1615 2.3918 3.0017 4.4128 4.2613 6.4412 4.0146 14.918 6.9923 22.738 7.987 2.9698 0.37775 12.781 0.19173 16.132-0.30587zm-9.2102-182.98c3.1888-0.81556 6.0232-2.1974 11.331-5.5246 2.1713-1.3609 4.6835-2.7426 5.5828-3.0704 6.3763-2.3241 9.9923-4.4756 13.087-7.7864 3.3273-3.5599 4.4165-7.8988 2.7733-11.047-1.565-2.9987-4.8147-5.0206-12.254-7.6239-5.4678-1.9135-7.0495-2.6101-10.074-4.4368-7.1115-4.2955-13.133-5.9438-18.844-5.1586-4.9552 0.68125-8.7804 2.6747-13.658 7.1181-1.6892 1.5387-4.7849 4.0393-6.8792 5.557-6.5258 4.7289-7.5215 5.9425-7.5215 9.1677 0 3.9479 2.9632 7.8144 8.969 11.703 1.9072 1.2349 5.105 3.6783 7.106 5.4297 3.9018 3.4149 6.4904 4.999 9.4856 5.8045 2.7672 0.7442 7.7038 0.6844 10.896-0.13199zm-12.902-9.6075c-4.9506-1.0766-10.371-4.1783-15.817-9.0504-3.2108-2.8726-3.8187-3.6955-3.8375-5.1949-0.0193-1.5313 1.3424-1.133 2.3436 0.68561 0.8945 1.6248 5.516 5.74 9.2298 8.2188 1.3513 0.90195 3.8116 2.1523 5.4672 2.7786 2.8505 1.0783 3.2602 1.1392 7.7208 1.1471 4.5501 8e-3 4.8402-0.0363 8.5194-1.3054 7.6329-2.6328 17.967-8.8694 21.869-13.198 1.6581-1.8394 2.8018-2.1682 3.0504-0.87713 0.31407 1.6308-7.8893 7.9585-15.015 11.582-10.266 5.22-16.822 6.6728-23.53 5.2139zm-2.7972-27.232c-0.48334-1.2596 2.7173-2.879 4.7902-2.4237 1.1203 0.24606 1.3762 1.132 0.40974 1.4182-0.33584 0.0994-1.1913 0.48706-1.901 0.86136-1.5484 0.81664-3.0163 0.88079-3.2989 0.14417zm16.278-0.16029c-0.67169-0.36618-1.496-0.74685-1.8319-0.84592-0.96666-0.28516-0.71047-1.1714 0.40974-1.4175 2.0729-0.45529 5.2735 1.1641 4.7902 2.4237-0.2805 0.73097-1.8722 0.65522-3.3681-0.16029zm-26.518-0.64187c0-0.13805-0.32716-0.53112-0.72703-0.87349-1.0028-0.85864-2.3422-3.9067-2.8006-6.3736-0.69227-3.7251 0.27581-8.2493 2.1825-10.2 0.88408-0.90426 1.3531-1.1037 2.5962-1.1037 1.2562 0 1.7185 0.20139 2.6878 1.1707 2.0442 2.0442 3.3886 5.9678 3.3886 9.8896v1.5111l2.0063-1.0038c1.1035-0.55212 2.6175-1.202 3.3645-1.4442l1.3582-0.44034-0.1995-3.882c-0.40898-7.9581-3.8294-14.687-8.6993-17.114-2.3139-1.1531-5.3055-1.2282-7.4559-0.18717-3.2634 1.5798-6.2657 6.1411-7.322 11.124-0.64201 3.0286-0.62808 8.4377 0.0298 11.565 0.63975 3.0412 2.7712 7.7129 4.3281 9.4861l1.1398 1.2981 2.0613-1.5861c1.1337-0.87237 2.0613-1.6991 2.0613-1.8371zm56.944-1.4203c1.6274-3.5175 2.3743-6.9855 2.3674-10.992-8e-3 -4.6936-0.69681-7.74-2.6397-11.676-4.1349-8.3769-12.091-12.071-19.36-8.99-4.834 2.0491-9.2316 7.8388-10.605 13.963-1.1234 5.0076-1.0646 10.332 0.11404 10.339 0.31373 2e-3 2.1406 0.54802 4.0597 1.214 1.9191 0.66599 3.5678 1.2144 3.6637 1.2188 0.0959 4e-3 0.12181-0.92362 0.0575-2.0621-0.14481-2.5619 0.38179-5.1923 1.5418-7.7012 1.5472-3.3464 3.5788-4.9431 6.2895-4.9431 4.3799 0 7.4098 5.3135 7.0418 12.349-0.18786 3.5915-0.95186 5.802-2.4963 7.2225-0.50584 0.46525-0.91972 0.96294-0.91972 1.106s0.76245 0.51331 1.6943 0.82283c0.93188 0.30952 2.7693 1.0163 4.0831 1.5706l2.3887 1.0078 0.84269-1.1064c0.46348-0.60849 1.3081-2.1123 1.8769-3.3418z" fill="#1c252a" stroke-width=".34893"/>
</svg>
