<?xml version="1.0" encoding="UTF-8"?>
<svg width="456" height="456" fill="none" version="1.1" viewBox="0 0 456 456" xmlns="http://www.w3.org/2000/svg" xmlns:cc="http://creativecommons.org/ns#" xmlns:dc="http://purl.org/dc/elements/1.1/" xmlns:rdf="http://www.w3.org/1999/02/22-rdf-syntax-ns#">
 <title>Placeholder Logo</title>
 <metadata>
  <rdf:RDF>
   <cc:Work rdf:about="">
    <dc:title>Placeholder Logo</dc:title>
   </cc:Work>
  </rdf:RDF>
 </metadata>
 <g>
  <g fill="#1c252a" stroke-linecap="round">
   <path d="m242.59 65.867a162.13 162.13 0 0 0-104.37 38.25c3.8787 2.394 7.7802 4.7562 11.664 7.1426a149.39 149.39 0 0 1 92.707-32.654 149.39 149.39 0 0 1 149.39 149.39 149.39 149.39 0 0 1-149.39 149.39 149.39 149.39 0 0 1-149.39-149.39 149.39 149.39 0 0 1 19.369-72.807c-3.0632-3.2311-6.1132-6.4748-9.1816-9.7012a162.13 162.13 0 0 0-22.926 82.508 162.13 162.13 0 0 0 162.13 162.13 162.13 162.13 0 0 0 162.13-162.13 162.13 162.13 0 0 0-162.13-162.13z" stroke-width="16.191"/>
   <path d="m312.98 255.33c0.3968 0.36946 0.79248 0.74007 1.1894 1.1094-2.8344 1.5348-5.6852 3.0403-8.5274 4.5606-5.0285 2.6297-9.6267 6.6927-11.627 12.129-0.73965 2.3006-1.0313 4.9418-2.9102 6.6719-0.71222 0.74079-1.5965 1.2384-2.5488 1.5273 0.0872 1.513 0.22115 2.9533 0.41797 3.8145 1.3301 5.8198 4.0353 11.081 10.232 19.906 5.824 8.2936 6.6848 9.5666 8.2148 12.123 2.8658 4.7883 4.6436 8.8699 5.0801 11.67 0.69313 4.447-0.46556 10.533-2.707 14.223-0.38728 0.63748-0.66118 1.1602-0.60938 1.1602 0.14731 0 5.9422-4.153 7.7539-5.5566 4.8375-3.748 11.366-10.694 14.508-15.436 4.699-7.0909 7.7158-14.785 8.9473-22.818 0.52163-3.4027 0.57173-9.4809 0.10351-12.658-1.6486-11.187-7.5846-21.707-15.668-27.771-1.9208-1.4412-5.7401-3.3774-7.8086-3.959-1.3077-0.36768-2.6734-0.58965-4.041-0.69531z" stroke-width="2.867"/>
   <path d="m59.679 66.404c-2.2162-0.05405-5.5707 2.0998-7.0508 4.5273-1.7852 2.9278-1.7948 5.6193-0.03125 9.0762 0.76314 1.4959 10.128 11.675 20.811 22.621 19.12 19.592 56.58 59.023 76.953 81.002 23.991 25.882 28.089 30.072 35.271 36.059 16.779 13.985 33.93 23.555 47.615 26.566 1.0401 0.22886 2.2465 0.4284 3.4004 0.60157-0.41261-0.50478-0.78683-1.0432-1.0879-1.6406-0.89281-1.9366-0.91531-4.1437-0.85351-6.2383 0.32505-5.8503 3.0801-11.274 6.627-15.828 2.5449-3.1985 5.4377-6.1762 8.8047-8.5137 3.3897-2.3408 7.4626-3.781 11.611-3.6582 0.44518-8e-3 0.88793 0.0284 1.3262 0.0937-1.8471-3.9073-4.86-9.4296-7.1387-12.768-5.1917-7.605-22.343-24.646-32.045-31.838-4.3503-3.2248-15.426-10.346-24.611-15.824-35.536-21.195-88.805-54.021-118.28-72.889-13.978-8.9477-18.352-11.277-21.322-11.35z" stroke-width="11.468"/>
   <path d="m285 274.96c-7.3643-4.3211-38.557-26.957-43.185-31.338-0.85331-0.80784-0.94709-0.97712-1.0652-1.9227-0.3106-2.486 0.2693-5.8446 1.4882-8.6195 2.5252-5.7486 8.736-12.534 13.561-14.816 1.8057-0.85394 3.3878-1.2342 5.285-1.2703 1.2471-0.0237 1.5575 0.0351 2.2064 0.41836 0.4153 0.24526 9.7331 8.8276 20.706 19.072l19.951 18.626-1.8701 0.99575c-5.2633 2.8025-10.025 7.4224-12.406 12.037-1.0155 1.9681-1.4517 3.1218-1.9484 5.1539-0.66637 2.726-0.78709 2.7997-2.7228 1.6639z" stroke-width="2.867"/>
  </g>
 </g>
</svg>
