<?xml version="1.0" encoding="UTF-8"?>
<svg width="456" height="456" fill="none" version="1.1" viewBox="0 0 456 456" xmlns="http://www.w3.org/2000/svg" xmlns:cc="http://creativecommons.org/ns#" xmlns:dc="http://purl.org/dc/elements/1.1/" xmlns:rdf="http://www.w3.org/1999/02/22-rdf-syntax-ns#">
 <title>Placeholder Logo</title>
 <metadata>
  <rdf:RDF>
   <cc:Work rdf:about="">
    <dc:title>Placeholder Logo</dc:title>
   </cc:Work>
  </rdf:RDF>
 </metadata>
 <path d="m226.78 76.314c-7.1658 0.25378-14.287 1.2958-21.332 2.5896-12.177 2.2875-24.147 6.5647-34.274 13.828-10.893 7.688-19.703 17.972-26.959 29.08-1.7892 2.9258-3.8078 5.866-4.5303 9.2708-0.0403 0.77595-0.0208 1.6526-0.78709 2.0939-1.7403 2.6475-2.3844 5.8312-3.3136 8.8202-1.457 5.7588-3.0839 11.618-2.875 17.61 0.0812 4.0739 2.0182 8.1533 5.4886 10.4 4.897 3.1911 10.847 3.9987 16.511 4.8427 9.9833 1.0987 19.437 2.186 28.092 2.863 5.1112 0.23164 8.4456-0.65575 10.052-1.1206 2.0301-0.89411 3.1078-2.3133 3.3767-3.4307 0.28911-1.2014 0.18154-2.5 1.0004-3.5299 5.4334-8.8067 15.889-13.822 26.106-13.681 8.6574 3e-3 17.338 3.7661 22.883 10.487 1.4508 1.6899 2.8876 3.4095 4.0376 5.3234-1.9182 3.0954-4.9915 5.2399-7.8318 7.4292-10.08 7.1961-21.144 12.905-32.424 17.965-9.2497 4.1779-18.915 7.3045-28.464 10.704-0.29201 8.4308-0.85823 16.855-0.91627 25.292-0.17096 0.58573 0.0809 4.3522 0.28415 5.2088 0.53108 2.2379 1.3022 3.752 2.5398 5.6271 1.0894 1.5152 1.622 1.4612 3.0612 2.6587 4.2183 2.5029 9.0187 3.7501 13.642 5.2783 10.763 3.3639 22.165 3.0504 33.31 3.2625 4.2858 0.054 8.5719 0.10813 12.858 0.16223 2.6189 3.3645 5.5579 6.7534 6.4319 11.058 1.5151 6.4991-1.5737 13.243-6.2006 17.733-7.5916 7.3011-19.011 9.9802-29.2 7.7537-4.5565-1.1435-9.0561-2.9376-12.795-5.831-4.2387-3.3881-6.2306-8.5733-8.5258-13.308-1.2139-2.5213-3.222-5.1705-6.2576-5.3384-2.6876-0.1092-5.3171 0.69357-7.985 0.93129-11.391 1.5821-22.817 2.885-34.214 4.4101-3.9251 0.53378-7.9749 2.0305-10.388 5.3414-2.8828 3.7699-4.8668 8.2903-5.2422 13.053-0.76857 8.7983 1.4905 17.564 4.6174 25.721 5.9466 15.235 15.741 28.953 28.278 39.462 11.922 10.18 26.468 17.107 41.755 20.452 7.2048 1.5609 14.543 2.6366 21.915 2.908 3.192 3e-3 6.3322-0.72341 9.5081-0.98537 6.6343-0.70437 13.302-1.4984 19.704-3.4578 16.355-4.7555 30.783-14.895 42.07-27.509 8.78-9.9061 15.744-21.7 18.833-34.575 0.12997-0.54155 0.20412-1.1024 0.41156-1.6192 1.2266-3.0564 1.5053-6.6998 1.9918-10.061 0.51337-4.4728 0.56473-6.6326 0.73601-9.421 0.30743-12.638-2.368-25.305-7.6546-36.783-3.5906-7.9133-7.8506-15.614-13.528-22.237-0.63679-0.92503-1.8648-2.1102-0.94332-3.2655 2.2916-3.5803 5.4398-6.5112 7.922-9.9557 7.3827-9.5203 12.783-20.664 15.012-32.541 1.9573-10.22 2.0489-20.745 0.89825-31.066-1.2336-10.798-5.0021-21.222-10.569-30.531-7.8821-13.646-19.032-25.489-32.592-33.595-13.746-8.3261-29.44-12.969-45.26-15.297-2.7371-0.36815-5.4996-0.53734-8.2614-0.48366zm-12.572 12.41c3.0197-3e-3 6.0389 0.19119 9.0335 0.5798 0.74737 0.09321 1.5706 0.21749 2.4604 0.3605 9.5163 1.633 18.489 5.3845 27.419 9.0395 4.8104 1.9688 8.7666 4.9608 12.239 8.0541 2.9 2.583 5.6097 6.4188 8.2428 10.073 4.9063 7.278 8.4448 15.536 10.079 24.171 1.3657 6.9705-0.23815 14.076-2.187 20.771-2.1175 6.9313-5.0728 13.747-9.8596 19.275-7.4754 8.9369-16.377 16.571-25.625 23.61-4.9341 3.7013-9.8504 7.0812-15.162 10.259-3.9211 2.468-8.1785 4.3203-12.197 6.6091-1.8808 1.2181-4.1996 2.356-5.0289 4.5723-0.47571 1.21-0.044 2.5954 0.88922 3.4638 1.7061 1.4835 4.106 0.6051 5.9332-0.19226 7.7392-3.3936 15.072-7.6452 22.339-11.938 6.7866-4.1493 13.5-8.4609 19.761-13.377 4.2481-3.3763 8.326-7.2204 12.467-10.551 0.16313 2.7258 2.6791 4.5199 5.1461 5.095 4.7036 1.2491 9.6946 1.1578 14.303 2.8149 2.1576 2.1154 5.4093 2.3301 8.2644 2.5716 1.2973 0.0706 2.6032 0.0572 3.8964-0.0721-0.60248 0.94489-0.63263 2.1878-0.24934 3.2234-1.9038 3.7412-4.8338 6.8384-7.6095 9.9467-4.308 4.5235-8.7421 9.0464-13.993 12.482-0.73799 0.50721-1.5472 0.87574-2.4514 0.77807-2.1056 0.0796-3.9981 2.1011-3.5419 4.2298-1.2241 1.4271-1.3422 3.5508-0.75103 5.3203 1.3204 4.2405 4.1178 7.8047 5.768 11.908 1.6037 3.6045 2.9137 7.3368 3.9414 11.145 0.15644 0.60574 0.47316 1.7654 0.6549 2.6016 2.3582 10.292 3.0356 21.19 0.46865 31.51-2.7853 10.204-9.0657 19.196-16.748 26.346-7.6252 7.016-16.804 12.44-26.767 15.354-8.1004 2.1272-16.538 2.957-24.901 2.6557-6.9471-0.16647-13.648-2.733-19.5-6.3628-11.281-7.0475-19.052-19.354-20.675-32.541-0.22432-5.4827 1.8264-11.008 5.3354-15.195 0.46127-0.28985 1.1866-1.8016 1.5592-0.90725 4.0562 6.5851 9.7211 12.276 16.517 16.015 4.6728 2.4357 9.9349 3.5513 15.144 4.0796 10.726 1.0133 21.907-2.0832 30.198-9.0635 4.393-3.4288 7.8503-8.1763 9.1356-13.651 0.96686-3.692 1.1305-7.5958 2.5565-11.157 0.49928-3.4315-0.77142-6.8135-1.8626-10.013-1.8518-4.8305-4.2377-9.8273-8.5558-12.918-3.3589-2.1277-7.5351-1.7601-11.341-1.8235-6.8562 0.16247-13.733 0.32603-20.56-0.46565-8.246-0.90262-16.484-2.5037-24.231-5.5306-0.7105-0.29587-1.9272-0.79958-2.8089-1.2317-1.3893-0.66953-2.7454-1.4074-4.1187-2.1089 0.30963-8.4495 0.51327-16.917 0.78108-25.373 10.923-3.8902 21.914-7.6457 32.442-12.536 9.8682-4.5658 19.64-9.5696 28.326-16.165 3.3332-2.6763 6.8732-5.5817 8.4326-9.6944 1.5556-4.8869-0.66867-10.093-3.9354-13.741-5.6229-6.2929-13.685-9.9874-21.876-11.548-10.637-1.8181-21.994 0.4441-31.012 6.4048-4.6844 3.1135-8.6223 7.5659-10.382 12.975-0.33015 0.80067-0.70213 1.5907-1.1476 2.3312-9.806-0.89647-19.615-1.9304-29.444-3.0101-2.0824-0.26135-4.086-0.4771-6.0474-0.75705-3.4476-0.57757-7.0849-0.85502-10.214-2.5325-2.7683-1.6355-3.6286-5.084-3.3857-8.0992 0.39979-5.6842 2.3527-11.109 4.2749-16.427 0.22066-0.52596 0.6571-1.6739 0.97034-2.4364 6.2523-15.214 16.409-29.186 30.315-38.228 5.9773-3.9271 12.68-6.6328 19.611-8.3365 6.2837-1.6502 12.761-2.6348 19.266-2.6436zm97.361 210.31c0.1132 9e-3 0.22631 0.018 0.33947 0.0271 0.74429 0.11367 1.5114 0.33541 2.0879 0.84118-1.8068 2.9699-1.1811 6.6152-1.7905 9.8986-1.2872 6.3146-4.0484 12.224-7.0447 17.89-7.5223 13.526-18.821 24.839-32.006 32.88-8.0867 4.917-17.078 8.4169-26.467 9.7755-2.2626 0.37198-4.8503 0.69717-6.9276 0.91927-7.9795 0.74266-16.08 1.2126-24.039 0.027-2.0303-0.33411-3.8767-0.66539-5.801-1.0575-8.5303-1.6605-16.734-4.7405-24.397-8.8172-3.9052-2.0591-7.5834-4.5225-11.154-7.1108 0.57536-0.76816 0.51741-1.9369 0.30043-2.863-0.43143-1.0684-0.97574-2.1291-1.8325-2.92 3.2906-1.5137 6.925-1.7872 10.451-2.3432 2.525-0.36674 5.3373-1.6652 5.9843-4.371 0.23511-0.71305 0.0346-2.0655 0.87721-0.88323 1.6416 1.5149 3.8311 2.3787 6.0353 2.6196 0.87131 2.0438 3.2276 2.6081 5.2332 2.7938 6.5339 1.2587 12.8 3.7413 19.464 4.338 18.842 2.0797 38.053-4.3561 52.891-15.907 7.1854-5.5675 13.316-12.442 18.175-20.116 0.85656-1.1704 1.6495-2.5546 2.5836-3.5719 2.4164 0.93703 5.1897-1.2198 5.092-3.7221 1.4391-0.32392 2.5524-1.477 3.1243-2.7848 1.8079 0.31537 3.773-0.75115 4.2929-2.5475 1.8787-0.12689 3.8006-1.1981 4.5272-2.9951z" fill="#1c252a" stroke-width="1.5381"/>
</svg>
