<?xml version="1.0" encoding="UTF-8"?>
<svg width="456" height="456" fill="none" version="1.1" viewBox="0 0 456 456" xmlns="http://www.w3.org/2000/svg" xmlns:cc="http://creativecommons.org/ns#" xmlns:dc="http://purl.org/dc/elements/1.1/" xmlns:rdf="http://www.w3.org/1999/02/22-rdf-syntax-ns#">
 <title>Placeholder Logo</title>
 <metadata>
  <rdf:RDF>
   <cc:Work rdf:about="">
    <dc:title>Placeholder Logo</dc:title>
   </cc:Work>
  </rdf:RDF>
 </metadata>
 <g>
  <g transform="matrix(1.7695 0 0 1.7695 96.32 -47.861)" fill="#1c252a" style="shape-inside:url(#rect2632);white-space:pre" aria-label="C#">
   <path d="m61.606 210.22q-13.459 0-24.74-5.5756-11.084-5.7446-17.813-17.741-6.5314-11.996-6.5314-30.581 0-15.544 4.3543-26.019 4.5522-10.644 11.875-16.896 7.3231-6.2514 16.032-8.9547 8.9065-2.8723 17.615-2.8723 13.855 0 23.751 5.4066 10.094 5.4066 15.24 15.206l-14.052 8.9547-1.5834 0.8448-0.98962-1.3517q0.19793-1.1827-0.39584-2.3654-0.39584-1.3517-1.9792-3.7171-4.3543-4.3929-9.1044-5.9135-4.5522-1.6896-9.6982-1.6896-7.521 0-14.25 4.3929-6.5314 4.3929-10.688 13.01-3.9584 8.4479-3.9584 21.12 0 18.247 7.719 28.723 7.9169 10.306 19.792 10.306 7.3231 0 12.667-2.7033 5.3439-2.7033 9.6982-8.9548l15.438 9.7995q-6.9273 9.6306-16.428 13.686-9.3023 3.886-21.969 3.886z" stroke-width="1.9049"/>
   <path d="m114.23 187.5 2.016-15.648h-8.064l-1.92 15.168-8.64 0.096 1.824-15.072h-8.448l0.576-7.392h8.736l1.632-13.248h-9.6l0.48-7.488h9.888l1.824-15.648 8.832-0.192-1.92 15.648h7.872l1.824-15.264 9.216-0.096-1.824 15.168h7.776l-0.864 7.584h-7.68l-1.728 13.056h8.352l-0.48 7.392h-8.544l-2.016 15.456zm-5.28-23.04h7.968l1.728-13.152h-8.064z"/>
  </g>
 </g>
</svg>
