<?xml version="1.0" encoding="UTF-8"?>
<svg width="456" height="456" fill="none" version="1.1" viewBox="0 0 456 456" xmlns="http://www.w3.org/2000/svg" xmlns:cc="http://creativecommons.org/ns#" xmlns:dc="http://purl.org/dc/elements/1.1/" xmlns:rdf="http://www.w3.org/1999/02/22-rdf-syntax-ns#">
 <title>Placeholder Logo</title>
 <metadata>
  <rdf:RDF>
   <cc:Work rdf:about="">
    <dc:title>Placeholder Logo</dc:title>
   </cc:Work>
  </rdf:RDF>
 </metadata>
 <g transform="matrix(21.348 0 0 21.348 57.215 57.215)" fill="#1c252a">
  <path d="m6 9a0.5 0.5 0 0 1 0.5-0.5h3a0.5 0.5 0 0 1 0 1h-3a0.5 0.5 0 0 1-0.5-0.5zm-2.146-4.854a0.50063 0.50063 0 1 0-0.708 0.708l1.647 1.646-1.647 1.646a0.50063 0.50063 0 1 0 0.708 0.708l2-2a0.5 0.5 0 0 0 0-0.708z"/>
  <path d="m2 1a2 2 0 0 0-2 2v10a2 2 0 0 0 2 2h12a2 2 0 0 0 2-2v-10a2 2 0 0 0-2-2zm12 1a1 1 0 0 1 1 1v10a1 1 0 0 1-1 1h-12a1 1 0 0 1-1-1v-10a1 1 0 0 1 1-1z"/>
 </g>
</svg>
