<?xml version="1.0" encoding="UTF-8"?>
<svg width="456" height="456" fill="none" version="1.1" viewBox="0 0 456 456" xmlns="http://www.w3.org/2000/svg" xmlns:cc="http://creativecommons.org/ns#" xmlns:dc="http://purl.org/dc/elements/1.1/" xmlns:rdf="http://www.w3.org/1999/02/22-rdf-syntax-ns#">
 <title>Placeholder Logo</title>
 <metadata>
  <rdf:RDF>
   <cc:Work rdf:about="">
    <dc:title>Placeholder Logo</dc:title>
   </cc:Work>
  </rdf:RDF>
 </metadata>
 <g>
  <path d="m70.211 375.91c-0.73425-0.29666-1.9432-1.3126-2.6866-2.2576l-1.3516-1.7183v-288.06l3.6889-4.1288 62.963-0.16707c54.392-0.14432 63.208-0.04052 64.761 0.76232 2.1501 1.1119 4.1217 4.93 3.6062 6.9839-0.36933 1.4715-119.41 279.57-121.84 284.64-1.8663 3.893-5.4456 5.4386-9.1391 3.9462zm174.7-0.36231c-2.3642-1.2963-2.8309-2.3567-12.854-29.203l-8.7918-23.547h-24.836c-26.647 0-27.916-0.13638-30.086-3.2346-0.56694-0.80944-1.0308-2.4381-1.0308-3.6192 0-1.4064 9.1915-23.992 26.633-65.443 14.648-34.813 27.167-64.357 27.82-65.653 1.2257-2.4346 3.9125-4.28 6.2316-4.28 2.1155 0 4.957 1.7657 5.9586 3.7025 0.50761 0.98159 17.58 42.669 37.939 92.64 23.987 58.877 37.016 91.615 37.016 93.015 0 1.4934-0.56921 2.7974-1.8441 4.2246l-1.8441 2.0644-29.289 0.14276c-25.074 0.12221-29.538 6e-3 -31.023-0.80854zm134.7 0.0551c-0.92176-0.51952-2.2582-2.1592-2.9698-3.6437-2.4318-5.0728-121.47-283.17-121.84-284.64-0.51548-2.0538 1.4561-5.872 3.6062-6.9839 1.5526-0.80287 10.369-0.90665 64.761-0.76232l62.963 0.16706 3.6889 4.1288v288.21l-1.7384 1.9454c-2.0928 2.342-5.8642 3.0422-8.4714 1.5727z" fill="#1c252a" stroke-width=".63214"/>
 </g>
</svg>
