<?xml version="1.0" encoding="UTF-8"?>
<svg width="456" height="456" fill="none" version="1.1" viewBox="0 0 456 456" xmlns="http://www.w3.org/2000/svg" xmlns:cc="http://creativecommons.org/ns#" xmlns:dc="http://purl.org/dc/elements/1.1/" xmlns:rdf="http://www.w3.org/1999/02/22-rdf-syntax-ns#">
 <title>Placeholder Logo</title>
 <metadata>
  <rdf:RDF>
   <cc:Work rdf:about="">
    <dc:title>Placeholder Logo</dc:title>
   </cc:Work>
  </rdf:RDF>
 </metadata>
 <path d="m224.67 35.094c-12.089-0.02504-24.055 4.3682-32.73 13.247l-144.33 147.68c-48.763 60.387 33.185 53.361 68.315 70.754 12.602 12.881-48.297 22.388-35.695 35.279 12.602 12.881 76.196 24.813 88.819 37.694 12.602 12.881-25.794 26.549-13.192 39.43 12.602 12.881 41.749 0.67651 47.206 30.413 3.889 21.25 52.526 9.1326 76.311-8.2712 12.602-12.892-24.107-11.682-11.505-24.563 31.337-32.047 60.516-11.641 71.237-43.752 5.2963-15.868-46.136-24.465-33.513-37.346 36.258-21.175 161.58-34.956 102.12-94.419l-149.6-152.9c-9.1477-8.7824-21.357-13.223-33.445-13.247zm1.296 14.054c8.6307 0.0457 17.232 3.2749 23.426 9.5488l57.097 57.99c5.4145 5.5327 5.3404 16.253 2.3108 19.336l-28.353-22.68-5.5752 33.586-23.689-12.508-37.933 23.97-12.557-50.526-20.381 35.261h-31.153c-12.698 0-14.191-16.118-2.6531-27.656 20.154-21.755 43.281-43.925 55.85-56.773 6.3169-6.4566 14.979-9.5945 23.609-9.5488zm-68.566 225.62c3.8567 2.3957 62.19 14.246 76.446 16.61 4.9418 1.0421 1.4376 6.1355-5.3735 9.5733-15.363 4.0824-89.873-26.183-71.072-26.183zm226.81 40.598c-11.737 0.40421-23.31 6.4001-26.501 17.643 0 7.3268 53.986 12.128 53.986-1.7301-3.846-11.13-15.748-16.317-27.485-15.913zm-249.72 31.776c-16.359 0.8691-33.913 12.705-19.954 24.795 12.784 11.055 32.527-2.7476 38.446-18.175-3.8709-5.1433-11.057-7.0157-18.492-6.6206zm216.46 0.91699c-16.48 14.782 1.8455 29.779 18.089 20.229 3.6204-3.6741-0.0945-16.555-18.089-20.229z" fill="#1c252a" stroke-width="3.13"/>
</svg>
