<?xml version="1.0" encoding="UTF-8"?>
<svg width="804.18" height="801.09" version="1.1" viewBox="0 0 212.77 211.96" xmlns="http://www.w3.org/2000/svg" xmlns:cc="http://creativecommons.org/ns#" xmlns:dc="http://purl.org/dc/elements/1.1/" xmlns:rdf="http://www.w3.org/1999/02/22-rdf-syntax-ns#">
 <metadata>
  <rdf:RDF>
   <cc:Work rdf:about="">
    <dc:format>image/svg+xml</dc:format>
    <dc:type rdf:resource="http://purl.org/dc/dcmitype/StillImage"/>
   </cc:Work>
  </rdf:RDF>
 </metadata>
 <g transform="translate(-147.61 -32.377)">
  <path transform="scale(.26458)" d="m1003.9 124.27c-10.886 0.5802-19.291 10.528-20.662 20.906-3.1756-6.3172-5.7326-13.868-12.533-17.193-8.3528-4.8169-19.862-3.3732-26.33 3.9473-6.396 6.8183-8.2858 16.332-12.268 24.535-2.2992 5.2193-4.2996 10.681-7.0469 15.633-12.268 10.566-25.434 20.212-36.586 31.99-5.7186 8.5475-3.5265 20.701 3.5684 27.773-9.1592 5.0804-18.998 9.7526-25.678 18.127-14.099 15.191-28.83 29.885-41.814 46.045-7.2454 13.088 3.3897 31.537 18.256 32.135 5.5858 0.2129 11.184 0.32402 16.658 0.79492 2.8905 1.4999 0.77521 2.7325-1.0488 4.1113-13.664 11.607-27.738 22.807-40.684 35.203-6.1221 8.1704-4.6178 20.403 2.1953 27.697-4.4571 11.241 2.4429 25.212 13.998 28.676 2.5611 1.0004 5.2213 1.722 7.875 2.4316-27.899 20.133-56.129 39.821-83.711 60.385-8.0289 7.9664-7.2807 21.286-1.5938 30.361 1.5961 3.1729 4.2024 5.819 6.7461 8.1055-0.26154 11.568 9.7937 21.94 21.164 22.898-21.908 7.4876-43.968 14.618-65.625 22.773-12.834 7.2808-13.212 28.054-1.3281 36.408 3.5749 3.2904 8.9791 2.9615 12.518 6.2891 7.6526 4.584 16.777 5.3682 25.012 8.4941 10.097 3.0518 20.184 6.13 30.332 9.0078 2.229 3.4901 5.5706 6.1833 9.2949 7.9434-5.8888 2.9532-11.515 7.6318-12.887 14.402-2.5846 9.4473 1.6035 20.058 9.6211 25.562 7.2391 6.6671 13.765 15.556 24.008 17.518 4.3167 0.69705 8.8699 0.22642 12.844-1.6465 18.282 3.5012 36.683 6.3404 55.018 9.5527 5.6946 5.9912 14.433 8.0358 22.414 6.666 4.4518-0.71546 8.9028-1.4222 13.389-1.9121-0.48832 12.697-0.90878 25.397-1.498 38.09-6.1715-2.4419-12.09-5.6454-16.943-10.215-7.7169-5.4012-17.275-7.1438-26.41-8.4766-7.5983-0.56565-15.078 2.9225-20.002 8.6406-5.549 5.4544-9.6545 12.154-13.299 18.947-3.3483 2.8312-7.7154 4.1425-11.305 6.666-6.892 4.1077-12.644 11.061-12.9 19.383-0.83626 11.023 5.5959 22.835 16.299 26.561-84.515 0.0189-169.03-0.0794-253.54 0.20704-12.473 1.444-21.162 14.761-19.371 26.818-1.0779 10.122 3.073 21.974 13.066 26.104 10.155 4.0348 21.214 1.4039 31.793 2.2207 10.341 0.0593 20.885-0.11885 31.102 0.0879 1.6563 9.726 10.097 18.193 20.189 18.527 8.2805 0.77431 16.605-0.16304 24.904 0.24023 16.462 0.0151 32.925 0.0279 49.387 0.043 1.6173 9.8033 10.149 18.351 20.316 18.629 8.2295 0.74188 16.501-0.18113 24.748 0.21875 22.771 0.0151 45.543 0.0337 68.314 0.0488 1.628 9.8102 10.176 18.357 20.346 18.654 8.2021 0.70942 16.442-0.21388 24.66 0.1875 56.316-2e-3 112.64 0.24902 168.95-0.26953 9.3876-1.329 16.738-9.5556 18.478-18.652 31.812 0.0597 63.647 0.36861 95.443-0.42188 9.1853-1.3895 16.185-9.5747 17.912-18.439 24.18 0.0302 48.371 0.29878 72.545-0.39453 5.2547 0.36132 10.511-1.425 14.356-5.0527 3.8709-3.4933 6.5068-8.2887 7.5508-13.385 19.734-0.16895 39.522 0.50801 59.215-0.79102 11.227-2.7093 18.191-15.022 16.678-26.131 1.2558-10.413-3.3414-22.663-13.785-26.523-10.377-3.6081-21.477-1.1158-32.182-1.9258h-193.97c2.4793-7.0235 0.7988-14.811-2.875-21.084-3.0458-7.7353-8.017-14.579-14.305-19.992-2.3441-2.0008-1.5663-5.5017-3.1816-7.9941-4.2991-9.7803-14.22-14.849-21.68-21.832-3.5344-3.6146-3.899-8.9732-5.9278-13.414-1.9272-5.3893-4.4933-10.875-9.1093-14.482 4.9735-2.0536 9.0091-6.1208 11.279-10.971 9.3099-2.9605 18.636-5.8674 27.889-9.0059 9.987 3.5222 21.287-1.2417 27.668-9.2363 7.9553-7.4149 17.838-13.877 21.836-24.459 2.5361-9.1277-1.9851-19.186-9.5605-24.518 14.35-4.8407 29.167-8.8326 42.988-15.146 1.8556-0.83184 2.9472-3.6572 5.2246-2.2383 8.227 1.9159 17.883-0.21238 23.022-7.3398 7.5929-9.4724 5.8796-25.882-5.2578-31.904-17.423-10.018-35.651-18.526-53.377-27.98l-58.803-30.289c6.4877-1.9195 12.569-4.9788 18.865-7.4219 3.5591-1.6433 7.0097-3.6777 9.7852-6.4785 10.194 1.9818 22.208-3.0688 25.658-13.377 4.3312-10.697-1.1653-24.255-11.889-28.676-19.31-11.878-38.618-23.757-57.928-35.635 8.3001-1.0962 17.619-2.6165 23.045-9.7226 6.2492-7.6935 6.3534-19.542 0.031-27.229-2.7709-3.8398-6.4636-6.8596-9.7441-10.234 1.4639-9.3328-3.8391-18.507-11.277-23.822-10.486-10.132-20.971-20.264-31.457-30.396 7.1313-2.8839 15.037-6.0387 18.772-13.297 4.4099-7.496 3.4998-17.459-1.9863-24.166-0.2136-2.0428 0.6236-4.3748 0.164-6.5566-0.7352-8.6564-6.7213-16.034-14.129-20.152-7.8645-5.9002-15.729-11.801-23.594-17.701 9.8727-7.9278 10.518-24.434 1.3379-33.152-5.0717-4.7592-10.425-9.2053-15.385-14.092-0.9669-0.8966 2.6802 1.885 3.6094 2.3926 5.8807 4.3098 14.701 4.69 18.543 11.555 0.8582 4.0349 2.0066 8.2105 4.7618 11.461 5.8796 7.2427 15.199 11.9 24.566 11.834 5.7548-0.2095 11.481-2.395 15.717-6.334 7.6649-0.99161 15.282-3.0566 22.994-3.2539 13.055 4.0942 26.543 7.177 40.209 8.1035 12.66-3e-3 26.241-7.2188 30.227-19.811 3.7072-10.86-1.8078-24.585-13.064-28.271-11.726-4.7828-23.64-9.0981-35.459-13.648-6.7279-2.3401-13.99-4.8913-21.127-2.7949-7.6582 1.9963-14.749 5.2375-22.291 7.582-2.4565 0.88529-4.9426 1.6866-7.416 2.5234-5.0908-9.2779-10.418-19.4-20.223-24.471-14.967-9.1509-29.443-19.242-45.182-27.031-2.6168-0.83518-5.3799-1.1363-8.1191-1.0566zm-6.918 581.41c0.37894 0.21165 0.75779 0.42315 1.1367 0.63476 9.5506 4.7495 20.515 2.8728 30.742 4.3242 3.047-0.16516-1.3463 1.4676-2.0547 2.459-4.7999 3.4803-7.9467 8.597-11.941 12.842-4.8453 4.3084-10.958 6.231-16.348 9.6797-0.45415-9.9826-1.0332-19.959-1.5352-29.939z" fill="none" stroke="#dad2a5" stroke-linecap="round" stroke-linejoin="round" stroke-width="3.7795"/>
  <path transform="scale(.26458)" d="m1004.8 136.23c-6.4612 0.25346-9.8874 7.1827-9.7852 12.951-1.1747 5.31-1.1472 12.281 4.0996 15.469 2.6259 0.91353 3.5173 3.8862 5.9199 5.166 4.5836 4.2038 8.8271 8.9226 14.078 12.277 2.7995 4.1301 7.8313 5.7717 11.943 8.2578 3.7132 2.0331 8.1769 2.8678 11.457 5.5547 2.6397 2.9187 5.2693 5.9522 7.6484 9.043-0.616 5.9281 3.331 12.161 9.3223 13.391 5.3262 4.2735 14.176 2.7437 17.709-3.1152 9.7662-1.5748 19.533-3.1498 29.299-4.7246 5.816 2.6041 12.179 3.6491 18.281 5.3398 7.8416 1.2628 15.659 3.7979 23.642 3.4414 6.2846-1.0795 13.355-3.3997 16.113-9.7402 2.9642-5.2802 1.0738-13.122-4.9902-15.205-8.1417-3.3442-16.502-6.2339-24.643-9.4902-6.8924-2.5807-13.749-5.493-20.912-7.1797-7.9099 0.87011-14.984 4.8719-22.57 7-5.8302 1.9352-11.7 4.3013-17.506 5.9688-1.9087-0.89975-4.0975-1.697-4.666-3.9609-4.2122-6.9861-7.7053-14.527-13.035-20.754-15.45-9.7491-30.871-19.586-46.664-28.758-1.4719-0.67728-3.1249-0.99075-4.7422-0.93164zm-44.48 0.89258c-0.4302-0.0193-0.86232-0.0103-1.2949 0.0312-6.0905 0.47217-8.9768 6.6722-10.689 11.736-4.3095 10.032-8.5968 20.073-12.875 30.119-12.126 10.265-24.582 20.156-36.385 30.789-5.0287 6.0636 0.10502 16.146 7.7363 16.5 1.9242 0.85101 4.5684 0.91539 6.082 2.2129 0.0453 1.9688 4.8048 3.659 1.877 4.5566-11.415 6.3225-23.024 12.339-34.164 19.125-15.032 16.107-30.217 32.084-44.941 48.469-4.4729 6.5071 1.769 16.492 9.5586 15.473 6.8527 0.28346 13.686 0.82436 20.59 1.0566 2.0806 5.911 9.5124 7.945 14.992 5.832 3.3815-0.60166 6.7901-1.0331 10.164-1.6777-21.047 17.868-42.47 35.315-63.229 53.51-5.3705 6.1678 0.78447 17.341 8.8984 15.918 3.3301-1.1783 2.0692 0.14127 0.23828 1.8965-2.959 3.5671-7.4194 7.3198-6.2617 12.498 0.95139 5.074 5.6903 8.7012 10.689 9.1621 5.8039 1.6424 11.51 3.7655 17.494 5.0332-0.17122 2.9725 1.2015 5.9158 3.3672 7.9141-31.836 22.89-63.955 45.415-95.578 68.582-4.4287 4.3683-2.4387 11.258 0.30078 15.967 1.9712 4.5622 7.2766 7.6177 12.209 6.543-2.9594 2.9528-5.1036 7.3417-3.1973 11.457 1.8011 4.7885 6.9833 7.402 11.918 7.0254 6.4292 0.77676 13.847 3.2055 19.662-1.0488 2.7726-1.5083 5.5302-4.245 8.082-5.3574 2.1181 4.5511 7.3355 6.417 12.053 6.3476 2.1123 0.42807 4.6948 0.65213 6.5352 1.043-0.36813 2.2235-0.3153 4.5984 0.62891 6.6797-36.485 12.361-73.088 24.422-109.44 37.127-7.4732 3.8259-5.4928 16.563 2.5586 18.342 1.4759 0.62086 3.2384-0.17005 4.623 0.17578 2.6643 5.6095 9.6 6.176 14.877 7.793 15.462 4.8097 30.967 9.4907 46.555 13.881 0.99216 6.3655 8.4714 9.4828 14.24 7.9277 11.939-0.74037 23.881-1.437 35.816-2.2363-15.812 8.2166-31.791 16.157-47.406 24.723-4.9833 3.6873-4.9818 11.692-0.32617 15.66 4.7151 4.5972 9.5124 9.1118 14.211 13.729 3.2071 3.1258 8.0573 5.3057 12.387 3.0977 1.7698-0.29367 3.1471-2.9084 4.8789-1.4609 4.484 1.4233 9.2574 1.5532 13.832 2.6309 16.17 2.7841 32.349 5.5186 48.531 8.2344 2.3354 5.3863 9.1282 7.2794 14.393 5.4668 9.0032-1.1288 18.023-2.1355 26.998-3.4726-1.5973 41.793-3.1623 83.586-4.6953 125.38-9.2347-0.0189-18.47-0.0393-27.705-0.0586-0.79037-5.3699-2.5766-10.838-3.4551-15.879-0.97962-1.9174 2.6737-1.3277 3.6289-2.6328 2.9506-1.8089 5.0921-5.1707 4.832-8.7051 2.4891-0.353 4.4016-2.0529 6.1484-3.6992 5.3136-0.10697 10.11-3.151 14.475-5.8945 4.5555-4.253 3.0979-11.225 0.66602-16.189-2.1236-5.1454-7.4643-7.5422-12.369-9.2812-6.7705-2.732-13.415-6.0523-18.738-11.139-5.2348-4.2114-12.026-4.8509-18.215-6.4043-4.6078-1.229-9.7421 0.16248-12.691 4.0215-4.2627 4.4811-8.4636 9.1708-10.764 15.006-1.279 2.6753-2.524 5.625-5.4961 6.7578-5.5958 3.4532-12.06 5.8894-16.689 10.66-3.5648 5.3254-1.7004 12.712 2.0098 17.424 4.3843 4.1655 10.739 3.4816 16.041 5.1816 2.2607 0.59161 5.1188-0.3679 6.4375 2.0527 1.5094 1.2747 3.4002 2.0371 5.3379 2.3555-0.65862 5.4633-1.5334 10.906-1.8828 16.402-92.387 8e-3 -184.78-0.023-277.16 0.0586-6.8619 0.53893-10.412 8.3358-9.166 14.484-0.38952 5.4382-0.29085 12.413 5.1934 15.383 5.7996 2.6898 12.307 0.83086 18.434 1.418h51.953c0.17084 4.7165-0.87368 9.9872 1.6973 14.225 2.6518 4.0743 7.8662 5.2107 12.408 4.6035 26.797 0.12548 53.594 0.0702 80.391 0.0684 0.1493 4.7273-0.87116 10.004 1.7051 14.248 2.6408 4.0632 7.8379 5.1893 12.363 4.5801 33.103 0.13909 66.205 0.065 99.309 0.0703 0.20334 4.6228-0.85608 9.7386 1.5293 13.943 2.565 4.2663 7.908 5.5716 12.555 4.8828 61.413 0.10281 122.83 0.15918 184.24-0.0332 5.5982 0.53511 10.181-4.3963 10.641-9.7246 0.3353-3.0165-0.1776-6.0353 0.053-9.0664 34.923-0.0302 69.852 0.12973 104.77-0.14844 6.5359-0.94394 9.7208-8.4161 8.5234-14.359 0.2789-2.03-0.8567-5.3955 2.3652-4.375 28.014-0.0627 56.053 0.20946 84.051-0.28906 6.415-1.1409 9.1803-8.5928 8.0586-14.402 0.2411-2.0072-0.7669-5.1932 2.3789-4.1914 21.777-0.16063 43.57 0.27962 65.336-0.33984 6.3128-1.204 8.9234-8.5548 7.877-14.277 0.5008-5.4827 0.2249-12.518-5.3379-15.42-5.8993-2.568-12.444-0.75977-18.639-1.3379h-227.1c0.141-1.7747-1.3982-3.9997-0.5547-5.3359 1.4187-1.5406 2.4299-3.4098 4.7168-3.6523 5.0846-1.5632 9.569-6.6743 8.0098-12.248-1.0743-4.6796-4.154-8.5717-5.5586-13.133-2.3489-4.3223-6.6201-7.0955-9.5195-10.996-0.9357-1.3101-3.2217-1.5971-3.836-2.8242 0.1682-5.8394-2.2224-11.973-7.3535-15.123-5.4918-4.7304-11.544-8.9842-16.459-14.279-3.2541-7.2743-5.0413-15.214-8.8867-22.197-3.7825-4.6847-10.427-3.5363-15.559-2.373-5.7037 0.51742-10.163 4.5835-13.264 9.1016-3.4654 4.3937-7.1055 9.0105-12.473 11.135-7.9048 4.681-16.407 8.5126-23.629 14.242-1.7798 2.566-3.6069 5.1719-4.6133 8.1562l-3.3379-64.443c4.8679-1.818 9.817-3.4401 14.58-5.5293 3.2947 4.0123 8.5566 5.9606 13.666 5.4688 14.529 0.92908 29.041 2.4145 43.596 2.7402 4.8674-0.72955 8.2677-5.6676 8.0449-10.438 5.4052-0.39653 10.053-3.1035 15.252-4.3379 7.7216-2.5046 15.553-4.7283 23.076-7.7988 4.7411 3.9061 12.289 2.596 15.93-2.2207 6.9116-6.601 14.888-12.249 20.774-19.822 3.1235-6.1146-1.8267-13.505-8.0547-14.973-4.8393-2.4127-9.9969-4.8248-14.639-7.2383 2.9036-1.398 4.8507-4.6214 5.2051-7.6035 5.0898-4e-3 9.5939-2.8445 14.463-3.9824 13.859-4.6216 27.866-8.8844 41.531-14.027 2.6823-1.5449 4.2825-4.5612 4.5586-7.5898 5.2841 1.4478 10.593 4.1682 16.174 3.5723 7.3528-1.643 10.316-12.81 3.8379-17.26-6.7549-4.4699-14.328-7.4883-21.371-11.459-39.806-20.529-79.624-41.034-119.45-61.518 5.8237-3.4773 11.834-6.7417 17.496-10.43 1.14-0.84785 2.955 1.8738 4.5332 2.043 4.0681 2.049 8.9477 1.7832 12.826-0.55273 6.7021-2.9578 14.269-4.6521 19.934-9.4785 1.023-1.3029 1.7267-2.8666 1.9629-4.5098 5.3087 0.69706 11.042 2.5666 16.226 0.45703 6.7151-3.4683 6.7591-14.823-0.4472-17.781-27.405-16.907-54.827-33.785-82.281-50.611 4.7935-1.6337 9.6976-2.9155 14.504-4.4844 1.8948-0.73641 3.6508-1.9939 4.9395-3.4961 4.1207 0.74861 8.1509-1.0125 12.244-1.2988 4.93-0.57044 10.896-2.4822 12.162-7.9609 1.4686-5.1096-1.6844-10.178-5.6953-13.115-3.4219-3.4861-7.0011-6.974-10.289-10.496 3.6929-4.5335 2.3546-11.818-2.4551-15.016l-49.15-47.473c1.854-0.14551 3.3762-1.7092 4.9141-2.1641 5.8851 1.2662 10.849-3.0623 16.131-4.8418 4.8027-1.793 10.686-4.4827 11.213-10.311 0.7383-5.3991-3.4503-9.7707-7.5508-12.594 5.2729-4.2287 3.3856-13.118-2.1582-16.256-16.33-12.048-32.452-24.404-48.719-36.592 6.1517-0.49204 12.494-0.28353 18.48-1.8145 7.0573-2.9843 7.4713-14.131 0.9297-17.932-10.749-9.9685-21.497-19.936-32.246-29.904-6.9924-15.24-13.733-30.611-21.121-45.658-1.8281-2.3971-4.7133-3.9779-7.7246-4.1133zm27.943 633.34 0.19336 0.32422 0.0137 0.0215c3.1992 4.7434 9.0962 5.9958 13.717 8.8223-3.7927 5.675 0.3639 14.429 7.2696 14.785 3.6393 0.42587 7.2654-0.25779 10.881-0.58204 0.512 7.8446-1.8308 15.388-3.7265 22.891-0.9215 1.547 0.232 5.4911-2.4493 4.791-7.7807-0.0771-15.563-3e-3 -23.344-0.0215-0.70212-17.019-1.7241-33.976-2.5547-51.031z" fill="none" stroke="#dad2a5" stroke-linecap="round" stroke-linejoin="round" stroke-width="3.7795"/>
  <g fill="#dad2a5">
   <rect x="154" y="220" width="200" height="3"/>
   <rect x="174" y="225" width="160" height="3"/>
   <rect x="199" y="230" width="110" height="3"/>
   <rect x="229" y="235" width="50" height="3"/>
   <path d="m266.04 38.654 11.828 7.3246 3.8208 6.5563 0.62656-0.08137 0.86467 0.49549 0.25556 0.58412 11.218-3.9256 11.252 4.2672-0.49701 0.9654-2.0375 0.63893-4.0746-0.70518-2.9723-2.2487 2.0594 2.0999-4.529-1.2551-0.98968-1.4005-0.0196 1.0326-9.8261 1.5961-0.28511 1.0739-0.68996 0.1248-0.46479-0.65591-0.91818-0.0087-0.21068-0.76543 0.39302-0.78754-3.634-4.2271-3.1147-1.2665-2.3009-1.3285 2.4234-0.54089-3.5512-0.456-3.822-3.5773 1.622-0.02071-2.7504-0.85474z"/>
   <path d="m271.26 218 1.3456-5.6425-0.014-5.164-5.2026 0.41492 5.2104-2.1493-4.8486-0.83422-3.9809-2.0268 0.83503-1.4892 7.5083-4.2492 3.2093-3.77 2.4432-0.4517 0.97125 2.8596 1.2827 3.1775 5.6074 4.6865 0.1716 1.3891-1.23 0.2788-3.6464-3.0587 1.4363 3.5123-1.4799 0.38275-4.9717-0.21794 4.3687 2.9594-4.3597-1.042 1.3838 8.3772 1.3324 2.0573h-2.06l-0.8596-3.7381-0.64573-1.4112-0.066 5.1493h-1.3013l-0.11065-4.0949-0.81618 4.0949z"/>
   <path d="m284.27 218 0.56025-4.0886-2.327-0.40448 2.378-0.92931-2.3663-0.38742-1.6635-0.84962 0.62967-1.2139 1.8821-1.9171 1.8851-0.71883 2.3489-0.31689 0.54696 0.8231 1.3366 1.2052 0.85067 2.0388 0.57387 1.0304-1.4812 0.57037-0.88721-2.1124 0.0934 2.2398-2.2395-0.30977 1.9938 1.2796-1.525 0.083 0.77496 3.9781h-0.70941l-0.46078-2.55-0.40867-0.37036 0.22469 2.9204z"/>
   <path d="m229.66 218 0.94104-7.6353-2.6539 0.059 2.6641-1.5867-4.9849 0.53073-3.5438-0.72934-0.25481-1.2428 5.0501-2.87 1.8522-3.6174 2.0052-2.2164 3.621 0.85208 3.0906 2.3801 4.8438 2.1486 0.5852 1.6261-2.0357 0.91139-4.4975-2.2328 2.4618 3.1442-4.5352 1.3221 2.3252 1.3979-2.9382 0.18735 1.6933 7.5713h-1.4366l-0.50088-3.2705-0.71405-1.5103 0.0268 4.7808z"/>
   <path d="m254 38.889 5.5294 12.135 9.3815 8.6991-11.509 0.63298-2.1543-5.5728 1.2874 6.8316 4.7003 1.3506 15.573 11.739-6.5622-2.1749 7.7496 7.0529-4.1176 1.7971-8.6975-7.1606 6.3661 7.7114-10.058 0.34958-6.072-4.7211 4.481 6.3803 7.4988-0.26188 16.267 15.689-7.5669-4.2536 11.325 11.444-3.4544 0.58835-11.43-6.7136 8.8361 7.7066-4.6253 1.3717-10.505-9.235 8.465 9.6981-11.515-0.56728-2.4191-5.8557 1.1094 8.592 13.035 0.69511 24.045 14.764-10.957-1.725 5.3554 3.4768-5.1558 2.0828-13.784-7.793 9.6569 7.3003-5.9713 3.4928-9.4651-0.55783-2.3964-4.2944-0.25799 4.3015-4.0398-0.18359-10.592-9.4692 9.4583 11.878 17.149 1.2026 38.55 19.87-15.447-4.9061 9.2245 6.29-13.345 4.3956-9.5749-10.578 6.8778 12.897-15.585-1.4162-6.8786-14.56 3.7768 14.183-5.7868-0.64787-6.4808-6.4995 5.0295 9.1312 20.995 2.0451 9.801 4.8124-5.5377 4.9769-9.67-5.8357 6.5967 5.5484-9.0509 2.9055-10.462-4.9989 8.029 7.7539-12.269-0.88013-6.1876-7.3724 3.1549 6.1068-5.9813 2.2246 1.8253 35.242h-2.105l-0.98378-34.896-1.1335 1.4336-0.7551 33.462h-1.012l-0.15004-29.482-1.0866 29.482h-4.5067l1.7988-47.517-2.5525 10.982-9.1658 1.1579 5.3559-10.99-6.1789 9.6102-17.109-2.8913 7.0092-6.6528-10.347 7.1001-4.2845-4.1453 19.422-10.013 16.928-2.5266 4.9666-9.0086-6.8943 7.1364-4.3773-0.70378 1.9702-9.8304-4.7319 11.276-9.0499 1.4434 6.1161-9.2074-9.728 9.9384-14.343 0.899 6.998-8.9349-8.8205 6.9213-14.72-4.4188 15.302-4.1938-18.155 2.749 29.759-10.03 13.497-6.4654 4.8563-7.3648-6.8758 5.5555-11.237 5.0752 3.6203-10.902-5.7072 7.6143-3.0017-0.41029 3.3637-6.0941-9.7306 6.6802-4.0578-0.55246 7.7548-7.9282-2.2596-0.0667-7.7504 3.2929-0.75174-1.5673 27.803-19.854 7.0576-0.72077-3.5022 8.7971 7.0016-9.4138 4.4456-0.62216 4.3448-5.7284-5.8268 4.186-16.204 1.4502 6.2492-8.4262-8.1055 5.7977-5.6397-1.6935 7.9117-8.3962-9.1695 2.3944 19.339-16.238 4.5673-0.13687 4.5811-11.683-5.6923 9.3506-5.9136 0.03401 2.6358-7.5661-4.34 7.6915-4.6967 0.80169 3.8152-8.2438-5.0474 6.5539-7.0094-0.3778 11.444-12.308 14.56-7.9691 2.6635-6.0825-3.1814 4.9607-4.8914-0.19621 4.2036-5.8215-4.7008 4.6229-3.4682-1.0594 9.7358-8.1281z"/>
  </g>
 </g>
</svg>
