<?xml version="1.0" encoding="UTF-8"?>
<!-- Created with Inkscape (http://www.inkscape.org/) -->
<svg width="1e3pt" height="1e3pt" version="1.1" viewBox="0 0 352.78 352.78" xmlns="http://www.w3.org/2000/svg">
 <g fill="#dad2a5">
  <path d="m118.96 69.215 2.465 14.82 9.1368-5.2751zm3.2252 19.389 3.7844 22.752 25.981-15-17.811-14.654zm6.1444 26.84 80 138.56 25.981-15-80-138.56zm82.432 142.78 5.3751 9.31c2.1938 3.7998 7.0192 5.0932 10.819 2.8994l12.218-7.0544c3.7998-2.1938 5.0925-7.0194 2.8986-10.819l-5.3751-9.31z"/>
  <path d="m240.21 84.551a47.202 47.202 0 0 0-23.085 47.817l-28.945 16.712 17.334 30.024 28.945-16.712a47.202 47.202 0 0 0 52.953 3.9165 47.202 47.202 0 0 0 18.78-20.1l-16.717-4.1889-25.406 14.63-27.247-15.772 0.0354-31.482 25.469-14.667 4.675-16.376a47.202 47.202 0 0 0-26.792 6.1973zm-158.2 99.343a40.269 39.735 60 0 0-14.278 54.741 40.269 39.735 60 0 0 54.546 15.006 40.269 39.735 60 0 0 19.588-37.792l28.981-16.732-17.334-30.024-28.979 16.731a40.269 39.735 60 0 0-42.525-1.9309zm-3.5288 21.176 23.694-13.644 23.663 13.698-0.0307 27.342-23.694 13.644-23.664-13.697z"/>
  <path transform="scale(.26458)" d="m591.85 281.33v64.383c-3.476 0.91987-6.9368 1.8966-10.381 2.9297 4.6633 4.0928 9.2715 8.2477 14.031 12.23 8.288 14.355 16.574 28.711 24.861 43.066 15.283-2.7686 30.777-4.1985 46.309-4.2734 47.747 0.11109 94.59 13.024 135.65 37.393 3.473-18.137 9.4242-35.804 17.734-52.293 1.175-2.3869 2.4542-4.7167 3.7305-7.0469-25.87-14.326-53.55-25.106-82.295-32.049v-64.34zm-148.17 63.373-102.39 102.39 46.174 46.176c-18.882 30.421-32.681 63.715-40.855 98.574h-65.275v98.549c8.2777-6.4348 17.122-12.135 26.486-16.879 28.283-14.726 60.723-20.368 92.367-17.408 2.7658-69.491 32.536-135.16 82.979-183.04-6.8331-11.836-13.668-23.671-20.5-35.508-4.2063-24.709-10.11-49.078-15.326-73.582-1.3-6.4106-2.4432-12.85-3.6543-19.277zm506.29 60.318c-11.584 6.6762-23.168 13.353-34.752 20.029-0.0419 31.961-0.083 63.922-0.125 95.883 20.276 11.736 40.552 23.473 60.828 35.209-7.7075-22.007-17.728-43.133-29.895-63.025l46.02-46.02zm-16.547 256.68c0.0968 1.6535 0.17816 3.3079 0.24414 4.9629-4e-3 62.844-22.176 123.67-62.611 171.78 19.386 33.635 38.866 67.217 58.148 100.91 1.4228 1.9026 2.5569 3.9759 3.6602 6.0606l59.182-59.182-46.174-46.174c18.882-30.422 32.681-63.717 40.855-98.576h65.275v-76.822c-38.574 11.139-80.51 9.8118-118.58-2.9609zm-547.24 84.9c-10.951 6.3061-21.902 12.612-32.854 18.918 8.1746 26.212 19.593 51.301 33.988 74.682l-42.857 42.857c13.831 8.0039 27.663 16.008 41.494 24.012 23.184-13.351 46.369-26.703 69.553-40.055 0.0172-12.439 0.0337-24.879 0.0508-37.318-15.182-19.599-27.561-41.218-36.779-64.232zm153.88 155.09c-8.9337 18.874-21.109 36.205-36.305 50.555 27.504 15.978 57.175 27.892 88.092 35.369v64.385h149.64v-64.385c11.19-2.7472 22.229-6.0792 33.07-9.9824-10.62-18.348-21.215-36.711-31.816-55.07-24.69 7.351-50.313 11.09-76.074 11.102-44.198-0.0143-87.702-11-126.61-31.973z"/>
 </g>
</svg>
