<?xml version="1.0" encoding="UTF-8"?>
<svg width="456" height="456" fill="none" version="1.1" viewBox="0 0 456 456" xmlns="http://www.w3.org/2000/svg" xmlns:cc="http://creativecommons.org/ns#" xmlns:dc="http://purl.org/dc/elements/1.1/" xmlns:rdf="http://www.w3.org/1999/02/22-rdf-syntax-ns#">
 <title>Placeholder Logo</title>
 <path x="0" y="0" width="456" height="456" d="m20 0h416a20 20 45 0 1 20 20v416a20 20 135 0 1-20 20h-416a20 20 45 0 1-20-20v-416a20 20 135 0 1 20-20z" fill="#000"/>
 <g fill="#fff">
  <path d="m57.333 143.48q7.4667 0 10.88 2.9333 3.4133 2.9333 3.4133 8.2667 0 3.1467-1.44 5.92-1.3867 2.72-4.7467 4.4267-3.3067 1.7067-9.0133 1.7067h-4.3733v14.827h-4.8v-38.08zm-0.42667 4.1067h-4.8533v15.04h3.84q5.44 0 8.1067-1.76t2.6667-5.9733q0-3.68-2.3467-5.4933-2.3467-1.8133-7.4133-1.8133z" style="white-space:pre"/>
  <path d="m79.52 181.56v-38.08h4.8v33.813h16.64v4.2667z" style="white-space:pre"/>
  <path d="m131.36 181.56-4.5867-11.787h-15.093l-4.5333 11.787h-4.8533l14.88-38.24h4.32l14.827 38.24zm-10.293-27.573q-0.16-0.42667-0.53333-1.5467-0.37334-1.12-0.74667-2.2933-0.32-1.2267-0.53333-1.8667-0.37334 1.6533-0.85334 3.2533-0.48 1.5467-0.8 2.4533l-4.32 11.52h12.053z" style="white-space:pre"/>
  <path d="m156.8 147.16q-6.1333 0-9.6533 4.1067-3.52 4.1067-3.52 11.253 0 7.0933 3.2533 11.253 3.3067 4.1067 9.8667 4.1067 2.5067 0 4.7467-0.42667 2.24-0.42666 4.3733-1.0667v4.16q-2.1333 0.79999-4.4267 1.1733-2.24 0.37333-5.3867 0.37333-5.8133 0-9.7067-2.4t-5.8667-6.8267q-1.92-4.4267-1.92-10.4 0-5.76 2.08-10.133 2.1333-4.4267 6.24-6.88 4.1067-2.5067 9.9733-2.5067 6.0267 0 10.507 2.24l-1.92 4.0533q-1.76-0.8-3.9467-1.44-2.1333-0.64-4.6933-0.64z" style="white-space:pre"/>
  <path d="m195.47 181.56h-21.28v-38.08h21.28v4.2133h-16.48v11.893h15.52v4.16h-15.52v13.6h16.48z" style="white-space:pre"/>
  <path d="m232.96 181.56h-4.8v-17.76h-19.52v17.76h-4.8v-38.08h4.8v16.107h19.52v-16.107h4.8z" style="white-space:pre"/>
  <path d="m276.59 162.47q0 5.92-2.0267 10.347-1.9733 4.3733-5.8667 6.8267t-9.6533 2.4533q-5.92 0-9.8667-2.4533-3.8933-2.4533-5.8133-6.88-1.92-4.4267-1.92-10.347 0-5.8667 1.92-10.24 1.92-4.3733 5.8133-6.8267 3.9467-2.4533 9.92-2.4533 5.7067 0 9.6 2.4533 3.8933 2.4 5.8667 6.8267 2.0267 4.3733 2.0267 10.293zm-30.08 0q0 7.2 3.04 11.36 3.04 4.1067 9.4933 4.1067 6.5067 0 9.4933-4.1067 2.9867-4.16 2.9867-11.36 0-7.2-2.9867-11.253-2.9867-4.1067-9.44-4.1067t-9.5467 4.1067q-3.04 4.0533-3.04 11.253z" style="white-space:pre"/>
  <path d="m285.01 181.56v-38.08h4.8v33.813h16.64v4.2667z" style="white-space:pre"/>
  <path d="m343.47 162.15q0 9.6533-5.28 14.56-5.2267 4.8533-14.613 4.8533h-10.613v-38.08h11.733q5.76 0 9.9733 2.1333t6.5067 6.2933q2.2933 4.1067 2.2933 10.24zm-5.0667 0.16q0-7.6267-3.7867-11.147-3.7333-3.5733-10.613-3.5733h-6.24v29.867h5.1733q15.467 0 15.467-15.147z" style="white-space:pre"/>
  <path d="m373.17 181.56h-21.28v-38.08h21.28v4.2133h-16.48v11.893h15.52v4.16h-15.52v13.6h16.48z" style="white-space:pre"/>
  <path d="m392.05 143.48q7.0933 0 10.453 2.72 3.4133 2.6667 3.4133 8.1067 0 3.04-1.12 5.0667-1.12 2.0267-2.88 3.2533-1.7067 1.1733-3.6267 1.8667l10.453 17.067h-5.6l-9.2267-15.733h-7.5733v15.733h-4.8v-38.08zm-0.26666 4.16h-5.44v14.133h5.7067q4.64 0 6.7733-1.8133 2.1333-1.8667 2.1333-5.44 0-3.7333-2.24-5.28-2.24-1.6-6.9333-1.6z" style="white-space:pre"/>
  <path d="m52.267 311.77v-95.2h12v84.533h41.6v10.667z" style="white-space:pre"/>
  <path d="m202.53 264.04q0 14.8-5.0666 25.867-4.9333 10.933-14.667 17.067-9.7333 6.1333-24.133 6.1333-14.8 0-24.667-6.1333-9.7333-6.1333-14.533-17.2-4.8-11.067-4.8-25.867 0-14.667 4.8-25.6 4.8-10.933 14.533-17.067 9.8666-6.1333 24.8-6.1333 14.267 0 24 6.1333 9.7333 6 14.667 17.067 5.0666 10.933 5.0666 25.733zm-75.2 0q0 18 7.6 28.4 7.6 10.267 23.733 10.267 16.267 0 23.733-10.267 7.4666-10.4 7.4666-28.4t-7.4666-28.133q-7.4666-10.267-23.6-10.267t-23.867 10.267q-7.6 10.133-7.6 28.133z" style="white-space:pre"/>
  <path d="m264.93 261.5h32.933v46.667q-7.7333 2.5333-15.6 3.7333-7.8666 1.2-17.867 1.2-14.8 0-24.933-5.8666-10.133-6-15.467-16.933-5.2-11.067-5.2-26.133 0-14.933 5.8666-25.867 5.8667-10.933 16.8-16.933 11.067-6.1333 26.667-6.1333 8 0 15.067 1.4667 7.2 1.4667 13.333 4.1333l-4.5333 10.4q-5.0666-2.2667-11.467-3.8666-6.2666-1.6-13.067-1.6-17.067 0-26.667 10.267-9.4666 10.267-9.4666 28.133 0 11.333 3.6 20.133 3.7333 8.6666 11.6 13.6 7.8666 4.8 20.667 4.8 6.2666 0 10.667-0.66667 4.4-0.66666 8-1.6v-28.267h-20.933z" style="white-space:pre"/>
  <path d="m403.73 264.04q0 14.8-5.0666 25.867-4.9333 10.933-14.667 17.067-9.7333 6.1333-24.133 6.1333-14.8 0-24.667-6.1333-9.7333-6.1333-14.533-17.2t-4.8-25.867q0-14.667 4.8-25.6 4.8-10.933 14.533-17.067 9.8666-6.1333 24.8-6.1333 14.267 0 24 6.1333 9.7333 6 14.667 17.067 5.0666 10.933 5.0666 25.733zm-75.2 0q0 18 7.6 28.4 7.6 10.267 23.733 10.267 16.267 0 23.733-10.267 7.4666-10.4 7.4666-28.4t-7.4666-28.133q-7.4666-10.267-23.6-10.267t-23.867 10.267q-7.6 10.133-7.6 28.133z" style="white-space:pre"/>
 </g>
 <metadata>
  <rdf:RDF>
   <cc:Work rdf:about="">
    <dc:title>Placeholder Logo</dc:title>
   </cc:Work>
  </rdf:RDF>
 </metadata>
</svg>
